# xmcd
#
# Track frame offsets:
# 150
# 10391
# 21153
# 36968
# 47950
# 62691
# 72324
# 86889
# 100661
# 115252
# 130550
# 150374
# 166859
# 178086
# 188148
# 202582
# 214977
# 225961
# 240711
# 257823
# 271980
#
# Disc length: 3784 seconds
#
#
# Revision: 0
# Processed by: cddbd v1.5.2PL0 Copyright (c) Steve Scherf et al.
# Submitted via: FreeRIP 2.96 
#
DISCID=180ec615
DTITLE=carl meesenbaker - my country favorites
DYEAR=2008
DGENRE=Country
TTITLE0=grandma harp
TTITLE1=old man from the mountain
TTITLE2=hungry eyes
TTITLE3=hello walls
TTITLE4=you cant make a heart love somebody
TTITLE5=the legend of bonnie and clyde
TTITLE6=summertime blues
TTITLE7=farmers daughter
TTITLE8=good hearted woman
TTITLE9=luckenbach texas
TTITLE10=remember when
TTITLE11=c.c. waterback
TTITLE12=meat and potato man
TTITLE13=today I started loving you again
TTITLE14=your my angel
TTITLE15=folsom proson blues
TTITLE16=high tech redneck
TTITLE17=he stopped loving her today
TTITLE18=its five oclock somewhere w/chris
TTITLE19=ramblin fever
TTITLE20=here to alaska - chris
EXTD=
EXTT0=
EXTT1=
EXTT2=
EXTT3=
EXTT4=
EXTT5=
EXTT6=
EXTT7=
EXTT8=
EXTT9=
EXTT10=
EXTT11=
EXTT12=
EXTT13=
EXTT14=
EXTT15=
EXTT16=
EXTT17=
EXTT18=
EXTT19=
EXTT20=
PLAYORDER=
